<svg xmlns="http://www.w3.org/2000/svg" viewBox="0 0 1024 1024"><path d="M279.89457,475.51916A27.59645,27.59645,0,0,0,254.79115,514.542l33.92424,74.63506a91.75722,91.75722,0,0,0,18.79294,27.12034l53.35775,53.35777a17.21749,17.21749,0,0,0-4.71771,11.78129v69.25081A17.31271,17.31271,0,0,0,373.46107,768h95.21987a17.3127,17.3127,0,0,0,17.3127-17.31271V681.43645a17.3127,17.3127,0,0,0-17.3127-17.3127V648.00563a90.72728,90.72728,0,0,0-18.96607-56.69045,62.32548,62.32548,0,0,0-28.86027-21.06089A171.49914,171.49914,0,0,1,371.297,538.45086a39.81926,39.81926,0,0,0-47.307-2.51035L305.26634,492.2519A27.57915,27.57915,0,0,0,279.89457,475.51916Zm188.78637,275.1681H373.46107V681.43645h95.21987Zm-159.96937-206.402a102.396,102.396,0,0,0,21.83132,32.20164L370.0851,616.0291a8.65636,8.65636,0,1,0,12.24008-12.2401L342.783,564.19484a84.54567,84.54567,0,0,1-10.67328-12.98453,22.50653,22.50653,0,0,1,28.03792.4588,184.31094,184.31094,0,0,0,55.22753,34.98032,45.4026,45.4026,0,0,1,20.81853,15.44294,73.44039,73.44039,0,0,1,15.17458,45.91329v16.11812H379.78888l-60.06642-60.1097a74.73,74.73,0,0,1-15.2698-22.03909l-33.92424-74.60043a10.28661,10.28661,0,1,1,18.8189-8.31011Z"/><path d="M451.36824,707.40551h-8.65635a8.65635,8.65635,0,1,0,0,17.3127h8.65635a8.65635,8.65635,0,0,0,0-17.3127Z"/><path d="M555.24445,768h95.21987a17.31272,17.31272,0,0,0,17.3127-17.31271V681.43645a17.21761,17.21761,0,0,0-4.70039-11.78129l53.35776-53.34908a91.92223,91.92223,0,0,0,18.793-27.129L769.15158,514.542a27.59645,27.59645,0,1,0-50.48385-22.29011l-18.68042,43.58475a39.91442,39.91442,0,0,0-47.3589,2.5969,171.50008,171.50008,0,0,1-49.5576,31.82073,62.32586,62.32586,0,0,0-28.85162,21.03494,90.71867,90.71867,0,0,0-18.97474,56.71643v16.11812a17.31272,17.31272,0,0,0-17.3127,17.31271V750.6873A17.31271,17.31271,0,0,0,555.24445,768Zm17.31271-119.99434A73.44034,73.44034,0,0,1,587.74041,602.127a45.37672,45.37672,0,0,1,20.77526-15.43428,184.31094,184.31094,0,0,0,55.22753-34.98032,22.50649,22.50649,0,0,1,28.08985-.528,84.83242,84.83242,0,0,1-10.6906,13.01048l-39.54222,39.55087a8.65634,8.65634,0,0,0,12.24006,12.24006l39.54222-39.54222a102.39607,102.39607,0,0,0,21.83132-32.15835l19.36425-45.17749a10.28654,10.28654,0,1,1,18.81887,8.3101l-33.92423,74.635a74.74774,74.74774,0,0,1-15.27845,22.04774L644.1365,664.167H572.55712Zm-17.31271,33.43082h95.21987v69.25081H555.24445Z"/><path d="M581.21351,707.40551h-8.65635a8.65635,8.65635,0,0,0,0,17.3127h8.65635a8.65635,8.65635,0,0,0,0-17.3127Z"/><path d="M383.615,328.69012a66.65394,66.65394,0,0,0-18.81026,48.47557A112.273,112.273,0,0,0,399.98413,454.64a113.16451,113.16451,0,0,0,77.90716,34.92838,67.33778,67.33778,0,0,0,48.38036-18.62848,66.65387,66.65387,0,0,0,18.8016-48.47557,112.30753,112.30753,0,0,0-35.1621-77.46569C470.69787,305.78541,414.05937,298.44482,383.615,328.69012Zm28.56595,113.69252a96.2846,96.2846,0,0,1-30.0635-65.24292,56.53454,56.53454,0,0,1,3.4106-19.97887,58.17061,58.17061,0,0,0,24.79178,7.92056,38.08794,38.08794,0,0,1,36.04505,35.96714,55.20155,55.20155,0,0,0,50.73487,50.63966,42.00954,42.00954,0,0,1,18.135,5.49678c-.43281.46746-.7531,1.03877-1.20323,1.48891-23.66646,23.51064-69.346,16.196-101.816-16.29126ZM527.7086,422.473a56.53435,56.53435,0,0,1-3.40194,19.97886,58.11893,58.11893,0,0,0-24.80045-7.92057,38.08792,38.08792,0,0,1-36.01907-35.94982,55.20155,55.20155,0,0,0-50.72622-50.63966,41.98329,41.98329,0,0,1-18.1264-5.50544c.43281-.46744.74445-1.03011,1.19458-1.48023a50.20684,50.20684,0,0,1,36.2528-13.78091,103.72687,103.72687,0,0,1,95.66134,95.30642Z"/><path d="M546.97762,479.36257a8.65635,8.65635,0,0,0,6.63076,8.65635,65.73624,65.73624,0,0,0,15.58142,1.7832c49.68748-.09521,90.026-52.51808,89.94814-116.86074.08655-57.0367-31.23213-105.45167-74.44464-115.12948a71.1207,71.1207,0,0,0-15.59876-1.7832c-29.08535.09522-56.43077,18.35146-73.14618,48.85644a8.65635,8.65635,0,1,0,15.18324,8.3101c13.85017-25.25058,34.989-39.81921,57.99754-39.81921q2.07753,0,4.207.18178a48.79613,48.79613,0,0,1-11.14071,22.117,63.16013,63.16013,0,0,0,.06059,82.40847A45.065,45.065,0,0,1,574.072,408.97777a44.38108,44.38108,0,0,1-11.7813,30.74736,61.66792,61.66792,0,0,0-15.31309,39.63744Zm29.14594-29.22384a63.26059,63.26059,0,0,0,0-82.44309A45.01306,45.01306,0,0,1,564.299,336.80978a44.34645,44.34645,0,0,1,11.78994-30.74736,65.43337,65.43337,0,0,0,14.11852-28.39283c30.05485,12.58633,51.66974,51.42738,51.6005,95.21986.06924,54.812-32.52192,99.46148-72.65278,99.548-1.4283,0-2.81332-.05195-4.17234-.16447a48.75262,48.75262,0,0,1,11.14071-22.1516Z"/><path d="M295.55391,368.56128a8.65636,8.65636,0,0,0,8.65635,8.65635h25.96906a8.65635,8.65635,0,0,0,0-17.3127H304.21026A8.65635,8.65635,0,0,0,295.55391,368.56128Z"/><path d="M685.08973,368.56128a8.65636,8.65636,0,0,0,8.65635,8.65635h25.96905a8.65635,8.65635,0,0,0,0-17.3127H693.74608A8.65635,8.65635,0,0,0,685.08973,368.56128Z"/><path d="M350.20146,451.95657,327.69494,464.9411a8.65636,8.65636,0,1,0,8.65635,14.99281l22.50652-12.98453a8.65636,8.65636,0,1,0-8.65635-14.99281Z"/><path d="M687.55678,257.18866l-22.5065,12.98453a8.65636,8.65636,0,1,0,8.65639,14.9928l22.5065-12.98453a8.65636,8.65636,0,1,0-8.65639-14.9928Z"/><path d="M665.06759,466.94936l22.5065,12.98453a8.65616,8.65616,0,0,0,8.65635-14.99281l-22.5065-12.98452a8.65636,8.65636,0,1,0-8.65639,14.9928Z"/><path d="M358.85781,270.17319l-22.50652-12.98453a8.65635,8.65635,0,0,0-8.65635,14.9928L350.20146,285.166a8.65635,8.65635,0,1,0,8.65635-14.9928Z"/></svg>