<svg xmlns="http://www.w3.org/2000/svg" viewBox="0 0 1024 1024"><path d="M700.11914,302.25391H675.22852l-6.91407-33.52735A16.01337,16.01337,0,0,0,652.69336,256H371.30664a16.00691,16.00691,0,0,0-15.62109,12.72656l-6.918,33.52735H323.877a19.95517,19.95517,0,0,0-19.93359,19.93359v32.957A19.95852,19.95852,0,0,0,323.877,375.082h9.78125l5.543,38.94922a17.48379,17.48379,0,0,0-8.625,17.66406l37.00391,259.98828A17.62471,17.62471,0,0,0,380.791,706.22266l5.26562,37.01562A28.96351,28.96351,0,0,0,414.5918,768H609.4082a28.96351,28.96351,0,0,0,28.53516-24.76172l5.26562-37.01562a17.62471,17.62471,0,0,0,13.21094-14.53907l37.00391-259.98828a17.4744,17.4744,0,0,0-8.62891-17.66406L690.3418,375.082h9.78125a19.95852,19.95852,0,0,0,19.93359-19.9375v-32.957A19.961,19.961,0,0,0,700.11914,302.25391Zm-21.5625,127.32421L641.55273,689.56641a2.5246,2.5246,0,0,1-2.48828,2.16015H567.2168a7.50782,7.50782,0,0,0,0,15.01563h60.7539L623.07617,741.125a13.87861,13.87861,0,0,1-13.67187,11.86328H414.5918A13.87862,13.87862,0,0,1,400.91992,741.125l-4.89062-34.38281H532.2832a7.50782,7.50782,0,1,0,0-15.01563H384.93164a2.5246,2.5246,0,0,1-2.48828-2.16015L345.43945,429.57812a2.48976,2.48976,0,0,1,.58985-2.0039,2.517,2.517,0,0,1,1.76953-.84766c.10156-.0039.19922-.01172.30469-.01953H675.89258c.10156.00781.20312.01563.30469.01953a2.517,2.517,0,0,1,1.76953.84766A2.48973,2.48973,0,0,1,678.55664,429.57812ZM348.82617,375.082H675.17383l-5.21094,36.61328H354.03711ZM705.041,355.14453a4.92629,4.92629,0,0,1-4.92188,4.92188H323.877a4.92879,4.92879,0,0,1-4.92187-4.92188v-32.957a4.92879,4.92879,0,0,1,4.92187-4.92188h67.17578a7.50586,7.50586,0,0,0,0-15.01171H364.09961l6.28906-30.49219a.94375.94375,0,0,1,.918-.75H652.69336a.94375.94375,0,0,1,.918.75l6.28906,30.49219H425.98633a7.50586,7.50586,0,1,0,0,15.01171H700.11914a4.92629,4.92629,0,0,1,4.92188,4.92188Z"/></svg>