<svg xmlns="http://www.w3.org/2000/svg" viewBox="0 0 1024 1024"><path d="M684.89388,369.37387l-27.82721-55.6544V264.53333A8.53371,8.53371,0,0,0,648.53333,256H375.46667a8.53371,8.53371,0,0,0-8.53334,8.53333v49.18614l-27.82719,55.65439A59.97692,59.97692,0,0,0,332.8,396.09173V759.46667A8.53371,8.53371,0,0,0,341.33333,768H682.66667A8.53371,8.53371,0,0,0,691.2,759.46667V396.09173A59.977,59.977,0,0,0,684.89388,369.37387Zm-138.76055-96.3072H640V307.2H546.13333ZM494.19093,319.232c.05121-.1024.11947-.37547.19628-.5632a8.54593,8.54593,0,0,0,.52054-2.56c0-.11947.06826-.21334.06826-.3328V273.06667h34.13333l-.04267,40.6528-27.8272,55.65439a59.97679,59.97679,0,0,0-6.30614,26.71787V460.8H460.8V396.09173a42.9748,42.9748,0,0,1,4.5056-19.08906L494.08,319.54773C494.1312,319.44533,494.13973,319.3344,494.19093,319.232ZM384,273.06667h93.86667V307.2H384ZM605.86667,396.09173v354.8416h-256V396.09173a42.97493,42.97493,0,0,1,4.5056-19.08906l26.368-52.736h91.8528l-22.5536,45.10719a59.97679,59.97679,0,0,0-6.30614,26.71787v73.2416a8.53372,8.53372,0,0,0,8.53334,8.53334h51.2A8.53371,8.53371,0,0,0,512,469.33333v-73.2416a42.9748,42.9748,0,0,1,4.5056-19.08906l26.368-52.736h91.8528l-22.55361,45.10719A59.9769,59.9769,0,0,0,605.86667,396.09173Zm68.26666,354.8416h-51.2V396.09173a42.97493,42.97493,0,0,1,4.5056-19.08906l21.0944-42.1888,21.0944,42.1888a42.97466,42.97466,0,0,1,4.5056,19.08906Z"/><path d="M488.96,533.504a114.15442,114.15442,0,0,0-83.456,83.456,52.63442,52.63442,0,0,0,12.02347,49.21175,48.27072,48.27072,0,0,0,35.05494,13.48269,71.9641,71.9641,0,0,0,14.19093-1.42507,114.15438,114.15438,0,0,0,83.456-83.456A48.83716,48.83716,0,0,0,488.96,533.504Zm-66.73066,86.86934a97.46412,97.46412,0,0,1,70.144-70.144A55.3193,55.3193,0,0,1,503.10825,549.12a33.48076,33.48076,0,0,1,19.37067,5.53812,61.38181,61.38181,0,0,1-12.14293,7.33867,86.181,86.181,0,0,0-40.10666,40.10667,68.99744,68.99744,0,0,1-32.3328,32.33278,78.94366,78.94366,0,0,0-14.83947,8.97709A44.55683,44.55683,0,0,1,422.22933,620.37334ZM533.504,591.36a97.46412,97.46412,0,0,1-70.144,70.144,39.073,39.073,0,0,1-30.1568-4.38613,61.631,61.631,0,0,1,12.20267-7.39841,86.47,86.47,0,0,0,40.1408-40.08961A69.05379,69.05379,0,0,1,517.871,577.30553a78.741,78.741,0,0,0,14.80532-8.98561A44.55729,44.55729,0,0,1,533.504,591.36Z"/></svg>